<!--<svg xmlns="http://www.w3.org/2000/svg" width="16" height="16" fill="green" class="bi bi-plus-circle-fill" viewBox="0 0 16 16">-->
<!--  <path d="M16 8A8 8 0 1 1 0 8a8 8 0 0 1 16 0"/>-->
<!--  <path d="M8.5 4.5a.5.5 0 0 0-1 0v3h-3a.5.5 0 0 0 0 1h3v3a.5.5 0 0 0 1 0v-3h3a.5.5 0 0 0 0-1h-3z" fill="white"/>-->
<!--</svg>-->
<svg xmlns="http://www.w3.org/2000/svg" width="16" height="16" fill="#096923" class="bi bi-plus-square-fill" viewBox="0 0 16 16">
  <path d="M2 0a2 2 0 0 0-2 2v12a2 2 0 0 0 2 2h12a2 2 0 0 0 2-2V2a2 2 0 0 0-2-2zm6.5 4.5v3h3a.5.5 0 0 1 0 1h-3v3a.5.5 0 0 1-1 0v-3h-3a.5.5 0 0 1 0-1h3v-3a.5.5 0 0 1 1 0"/>
  <path d="M8.5 4.5a.5.5 0 0 0-1 0v3h-3a.5.5 0 0 0 0 1h3v3a.5.5 0 0 0 1 0v-3h3a.5.5 0 0 0 0-1h-3z" fill="white"/>
</svg>